<svg width="99" height="24" viewBox="0 0 99 24" xmlns="http://www.w3.org/2000/svg" xmlns:xlink="http://www.w3.org/1999/xlink"><defs><path id="a" d="M43.05.033H0V23.99h86.1V.033H43.05z"/></defs><g fill="none" fill-rule="evenodd"><path d="M31.5 13.39v-2.354c-.225.008-.528.064-.847.124-.978.184-2.318.435-3.386-.296-1.196-.82-1.387-2.14-1.527-3.105-.041-.28-.08-.545-.136-.76-.102-.39-.426-.637-.837-.95a5.837 5.837 0 0 1-.83-.732 8.687 8.687 0 0 0-.22.713c-.026.1 0 .126.047.22a12.773 12.773 0 0 1 .815 2.073c.16.545.282 1.099.367 1.66l2.734 2.336 3.82 1.07" fill="#DA2556"/><path d="M26.695 1.944l.016.028c.09.152.178.317.261.49l.014.03-.255.123-.015-.03a6.64 6.64 0 0 0-.25-.469l-.016-.027.245-.145zm.49.991l.013.03c.065.157.13.324.2.51l.012.03-.266.101-.011-.03c-.07-.185-.134-.349-.198-.501l-.012-.03.262-.11zm.402 1.052c.055.148.12.323.195.5l.013.03-.262.11-.013-.03a11.75 11.75 0 0 1-.2-.512l-.01-.03.266-.099.011.03zm.423.978a3.655 3.655 0 0 0 .282.438l.02.026-.226.172-.02-.026a3.318 3.318 0 0 1-.306-.475l-.015-.028.25-.136.015.029zm.608.791l.025.022c.133.115.274.21.42.28l.03.015-.125.255-.03-.014a2.256 2.256 0 0 1-.482-.322l-.024-.02.186-.216zm.908.48l.031.011c.17.063.341.126.511.192l.03.011-.101.265-.03-.012a43.541 43.541 0 0 0-.508-.19l-.03-.01.097-.267zm1.02.389l.03.012c.17.067.338.135.506.205l.03.013-.109.262-.03-.013c-.167-.07-.335-.137-.502-.204l-.03-.012.105-.263zm-6.197-2.248c-.07.127-.135.258-.195.392.272.366.604.622.93.87.45.344.876.67 1.023 1.23.017.064.032.13.046.197l.52.302c.154.09.3.175.456.214.147.038.284.024.377-.037.025-.016.049-.036.072-.055.057-.047.12-.1.208-.135.314-.129.629.087.763.179l.376.256c.095.065.214.146.294.275.167.27.1.635-.18.974a.209.209 0 0 1-.294.029.205.205 0 0 1-.028-.29c.12-.146.23-.363.147-.497a.624.624 0 0 0-.175-.151l-.376-.257c-.123-.084-.276-.175-.369-.137-.028.012-.063.04-.1.07-.035.03-.07.059-.109.084-.19.124-.45.158-.71.092-.21-.054-.397-.162-.562-.258l-.222-.128.013.09c.14.966.3 2.061 1.309 2.753.889.61 2.056.39 2.994.214.356-.067.675-.127.944-.134V.033c-1.533 0-3.05.442-4.34 1.265-1.205.77-2.133 1.842-2.812 3.079zM31.48 15.96a.144.144 0 0 1 .02-.053v-2.196l-3.938-1.104a.152.152 0 0 1-.06-.032l-2.496-2.132.01.07a12.703 12.703 0 0 1 .046 2.26c.054.071.11.144.168.213.729.863 1.597 1.601 2.618 2.12a8.035 8.035 0 0 0 3.63.87l.002-.016" fill="#DA2556"/><g fill="#DA2556"><path d="M31.15 23.356c-2.588 0-5.064-1.12-6.973-3.153a.33.33 0 0 0-.245-.116.285.285 0 0 0-.261.17c-.05.112-.021.241.076.344 2.02 2.154 4.65 3.34 7.402 3.34.192 0 .292-.147.292-.293 0-.145-.1-.292-.292-.292M32.55.602a8.731 8.731 0 0 1 5.638 2.956.282.282 0 0 0 .427 0 .28.28 0 0 0 .003-.367A9.307 9.307 0 0 0 32.614.044a.283.283 0 0 0-.317.278c0 .143.109.264.253.28"/></g><path d="M35.684 22.634l-.532.48-.226.433a8.475 8.475 0 0 0 1.098-.46 2.913 2.913 0 0 1-.34-.453M33.567 11.881c-.238-.513-.677-.735-1.296-.86v2.444l1.585.444c-.11-.334-.116-.655-.118-.967-.003-.36-.005-.701-.171-1.06M32.27 17.3v6.684c.757 0 1.502-.107 2.219-.305l.344-.66L32.27 17.3M36.127 14.201a.156.156 0 0 1-.132.092l-1.24.082c.357.403.878.834 1.31 1.01.246.1.354.072.389.055.21-.099.217-.21.13-.595-.042-.183-.084-.372-.049-.558.066-.35.454-.688.864-.753.39-.063.737.12.948.501.29.523-.085 1.356-.482 2.238-.28.625-.572 1.271-.56 1.686.014.543.43 1.255.988 1.693.369.29.743.413 1.052.348.02-.004.037 0 .055 0l.053-.083a8.016 8.016 0 0 0 1.067-3.149c-.015-.009.024-.234.026-.262a7.752 7.752 0 0 0 .025-1.007 8.214 8.214 0 0 0-.119-1.091c-.02-.117-.045-.219-.045-.219l-.097-.038c-.172-.06-.344-.119-.515-.18l-.03-.012.096-.267.03.011c.148.053.295.105.443.156a8.041 8.041 0 0 0-.453-1.307l-.937.77c.14.064.286.127.444.19l.03.013-.105.263-.031-.012a11.182 11.182 0 0 1-.692-.34l-.258-.154-.532-.317-.122-.073-1.115.328-.436.981M35.503 20.557a.157.157 0 0 1-.03-.083l-.142-2.497-.325-.69a.972.972 0 0 0-.125.18c-.156.303-.094.653-.03 1.024.049.275.099.559.06.838-.017.13-.053.259-.088.383-.07.252-.137.488-.049.697.06.14.18.245.308.357.098.087.2.176.281.287.16.22.207.48.254.734.022.122.045.247.08.364.006.02.015.037.021.056l.602-.542-.817-1.108" fill="#DA2556"/><path d="M35.494 22.212a3.423 3.423 0 0 1-.087-.386c-.044-.242-.086-.469-.217-.65-.066-.091-.16-.172-.249-.251-.14-.124-.285-.25-.363-.434-.117-.277-.038-.56.04-.834.032-.118.067-.24.082-.356.034-.247-.013-.515-.058-.774-.069-.389-.14-.79.05-1.157.056-.11.133-.205.216-.293l-.252-.535a.15.15 0 0 1-.015-.065v-.62c0-.085.07-.154.156-.154s.156.07.156.155v.584l.191.407c.119-.11.236-.223.315-.354a.88.88 0 0 0 .023-.833c-.554-.336-1.145-.9-1.449-1.381l-1.762-.494v2.78l2.792 6.232.485-.439c-.02-.048-.039-.097-.054-.148" fill="#DA2556"/><path d="M39.049 20.526c-.353-.033-.725-.192-1.078-.47-.68-.532-1.168-1.39-1.186-2.083-.014-.532.3-1.233.606-1.91.297-.66.666-1.48.5-1.779-.105-.19-.239-.27-.41-.241-.222.035-.414.227-.435.34-.016.08.015.217.045.35.075.33.2.885-.415 1.173-.215.101-.486.086-.807-.044-.035-.014-.071-.031-.108-.048.06.266.022.555-.12.79-.102.17-.246.303-.386.432l-.016.015.388.821a.151.151 0 0 1 .014.057l.14 2.482 1.437 1.95a8.241 8.241 0 0 0 1.83-1.835M36.48 12.147l-.029-.017a5.89 5.89 0 0 1-.468-.301l-.026-.02.165-.23.027.019a5.415 5.415 0 0 0 .446.287l.028.016-.144.246zm-.909-.639l-.025-.02a9.459 9.459 0 0 1-.41-.37l-.024-.023.196-.205.024.022c.141.134.271.251.398.359l.024.02-.183.217zm-.803-.751l-.023-.024c-.119-.12-.236-.241-.354-.363l-.049-.05.205-.198.05.051c.116.12.232.242.35.362l.023.023-.202.199zm-.756-.798l-.02-.026a2.687 2.687 0 0 1-.306-.445l-.03-.058.252-.13.029.055c.068.128.158.258.274.398l.02.025-.219.18zm-.544-.989l-.019-.052a4.508 4.508 0 0 0-.187-.469l-.014-.029.255-.125.015.03c.08.162.14.332.2.497l.018.053-.268.095zm3.666.226a8.406 8.406 0 0 0-4.113-1.512c.059.052.116.104.167.16l.022.024-.209.193-.022-.024a2.198 2.198 0 0 0-.389-.33l-.079-.056-.24-.002v2.844c.697.123 1.4.378 1.768 1.173.213.46.216.892.219 1.273.002.3.004.584.105.858.031.083.086.179.157.283l1.36-.09.427-.96a.154.154 0 0 1 .099-.086l.938-.276a6.779 6.779 0 0 0-.42-.269l-.029-.016.144-.246.028.017c.062.036.123.073.183.11l.53.328.906.54 1.06-.87c-.017-.035-.031-.07-.049-.105a8.28 8.28 0 0 0-2.563-2.961zM36.495 21.903l-.65.586c.1.178.228.34.373.497.256-.137.505-.285.746-.447l-.47-.636" fill="#DA2556"/><path d="M62.064 10.095c-1.39 0-2.04-1.076-2.04-2.376 0-1.232.7-2.376 2.04-2.376 1.413 0 2.04 1.08 2.04 2.376 0 1.172-.773 2.376-2.04 2.376zm2.04-4.577c-.521-.672-1.242-1.056-2.128-1.056-1.789 0-3.016 1.579-3.016 3.257 0 1.788 1.162 3.256 3.016 3.256.866 0 1.588-.386 2.128-1.056v.88h1.064V1.822h-1.064v3.696zM69.773 4.462c-.865 0-1.625.345-2.121 1.056l-.089-.88h-.975V10.8h1.064V6.927c0-.894 1.114-1.584 1.947-1.584 1.427 0 1.423 1.284 1.423 2.376v3.08h1.064V7.455c0-1.48-.433-2.993-2.313-2.993M82.453 15.01l-2.073 5.168-2.023-5.168h-1.112l2.598 6.158c-.34 1.01-.912 1.663-2.036 1.94l.58.704c1.162-.2 1.925-1.14 2.368-2.162l2.77-6.632v-.008h-1.072M49.913 10.095c-1.812 0-3.281-1.655-3.281-3.696 0-2.042 1.47-3.697 3.281-3.697 1.812 0 3.282 1.655 3.282 3.697 0 2.04-1.47 3.696-3.282 3.696zm0-8.273c-2.4 0-4.346 2.05-4.346 4.577s1.947 4.576 4.346 4.576c2.4 0 4.346-2.05 4.346-4.576 0-2.528-1.946-4.577-4.346-4.577zM58.407 18.883c0 .894-1.114 1.584-1.947 1.584-1.428 0-1.424-1.284-1.424-2.376v-3.08h-1.064v3.344c0 1.479.433 2.992 2.313 2.992.865 0 1.625-.344 2.122-1.056l.088.88h.976v-6.16h-1.064v3.872M67.987 20.115l-2.002-5.105h-1.109l2.604 6.161h1.022l2.64-6.16H70.06l-2.072 5.104M72.331 17.528c.15-1.042.875-1.814 1.952-1.814 1.166 0 1.625.775 1.773 1.814h-3.725zm1.952-2.694c-1.847 0-3.016 1.475-3.016 3.257 0 1.813 1.073 3.256 3.016 3.256.929 0 1.897-.221 2.615-.832l-.311-.833c-.588.56-1.49.785-2.304.785-1.224 0-1.894-.974-1.952-2.235h4.79c0-1.889-.745-3.398-2.838-3.398zM58.694 4.55a2.787 2.787 0 0 0-.654-.093c-.74 0-1.32.426-1.652 1.061l-.089-.88h-.975V10.8h1.064V7.455c0-.995.372-2.113 1.596-2.113.325 0 .434.02.71.176V4.55M94.082 7.155c.15-1.041.875-1.813 1.951-1.813 1.167 0 1.625.775 1.774 1.813h-3.725zm1.951-2.693c-1.847 0-3.015 1.475-3.015 3.257 0 1.813 1.073 3.256 3.015 3.256.93 0 1.897-.222 2.616-.832l-.311-.833c-.588.56-1.49.785-2.305.785-1.223 0-1.894-.974-1.951-2.235h4.79c0-1.889-.745-3.398-2.839-3.398zM50.072 15.996c-.75-.203-1.709-.58-1.688-1.514 0-.96.836-1.408 1.685-1.408.549.005 1.148.255 1.628.508l.545-.773c-.622-.402-1.432-.61-2.173-.615-1.382.007-2.749.755-2.749 2.288-.005 1.443 1.207 2.199 2.484 2.545.976.265 1.963.598 1.95 1.768-.007 1.015-.75 1.666-1.685 1.672-.918-.007-1.796-.418-2.473-1.02l-.558.79c.74.788 1.98 1.1 3.031 1.11 1.552 0 2.83-.922 2.839-2.552 0-1.654-1.38-2.419-2.836-2.8M61.954 15.89l-.088-.88h-.976v6.161h1.064v-3.344c0-.995.373-2.113 1.597-2.113.324 0 .433.02.71.177v-.969a2.788 2.788 0 0 0-.655-.093c-.74 0-1.32.426-1.652 1.062M90.18 10.095c-1.407 0-2.04-1.032-2.04-2.376 0-1.285.674-2.377 2.04-2.377.687 0 1.221.066 1.678.636l.448-.646c-.474-.65-1.363-.87-2.126-.87-1.907 0-3.118 1.483-3.118 3.257 0 1.862 1.215 3.256 3.118 3.256.776 0 1.564-.17 2.176-.675l-.274-.832c-.548.46-1.217.627-1.902.627M76.078 10.095c-1.39 0-2.04-1.076-2.04-2.376 0-1.232.699-2.376 2.04-2.376 1.413 0 2.04 1.08 2.04 2.376 0 1.172-.774 2.376-2.04 2.376zm2.04-4.577c-.522-.672-1.243-1.056-2.13-1.056-1.787 0-3.015 1.579-3.015 3.257 0 1.788 1.162 3.256 3.016 3.256.866 0 1.588-.386 2.129-1.056v.88h1.064V4.64h-.976l-.088.88z" fill="#3D3F84"/><g><mask id="b" fill="#fff"><use xlink:href="#a"/></mask><path d="M83.787 4.462c-.866 0-1.625.345-2.122 1.056l-.089-.88h-.975V10.8h1.064V6.927c0-.894 1.114-1.584 1.947-1.584 1.428 0 1.423 1.284 1.423 2.376v3.08H86.1V7.455c0-1.48-.433-2.993-2.313-2.993M10.515 9.492a.143.143 0 0 0 .285 0 .143.143 0 0 0-.285 0zM6.53 3.936v.008l.002.007.121 1.554a.22.22 0 0 1 .026.074l.128.826.125.716a.194.194 0 0 1 .003.038l-.012 7.484.102.338.423.531c.008.01.013.019.018.028.043.047.083.096.117.147l.914.735.043.008 1.593.078.566-.002.307-.028.392-.217a.734.734 0 0 1-.104-.373c0-.082.016-.16.041-.234l-.206-.148c-.008-.005-.012-.013-.018-.02-.007-.006-.015-.01-.021-.018l-.384-.5a.184.184 0 0 1 .036-.26.187.187 0 0 1 .26.036l.368.479.166.12a.752.752 0 0 1 .316-.173l-.024-.524c0-.005.002-.01.003-.014l-.002-.015.046-.415.011-.388v-.004-.003l.022-.31-.017-.513-.137-1.998-.296-.534-.429-.447-.098-.081a.514.514 0 0 1-.247.076l-.035.114-.02.695a.185.185 0 0 1-.032.099l-.12.175a.187.187 0 0 1-.26.049.184.184 0 0 1-.049-.257l.09-.13.019-.665c0-.009.004-.016.006-.024.001-.008 0-.016.002-.024l.045-.15a.508.508 0 0 1-.172-.274l-.146-.022-.505.042-.303.042-.963.131a.19.19 0 0 1-.058 0l-.376-.066a.186.186 0 0 1-.124-.081l-.303-.461a.183.183 0 0 1-.03-.099l-.012-.867-.22-1.715.001-.01-.002-.009-.011-.525.001-.008-.001-.007.116-1.819a.186.186 0 0 1 .197-.173c.103.006.181.094.175.196l-.115 1.811.01.507.22 1.715v.01l.001.01.012.826.229.349.268.046.933-.127.308-.043h.005l.006-.001.532-.044.022.002c.008 0 .015-.002.022 0l.165.024a.51.51 0 0 1 .159-.174l-.044-.173a.187.187 0 0 1 .361-.09l.047.183a.51.51 0 0 1 .439.504.513.513 0 0 1-.02.134l.122.102.007.008.009.007.452.472c.011.01.02.024.028.038l.328.59c.013.024.021.05.023.077l.14 2.044v.003l.001.004.016.523-.001.009.001.009-.021.315-.011.392-.002.007v.007l-.045.41.024.522a.746.746 0 0 1 .558.875l.626.42.682.14 1.474-.155 1.22-.283 1.49-.526 1.381-.706.279-.212-.287-.516-.236-.38-.005-.016c-.003-.005-.007-.008-.009-.013l-.028-.072-.11-.275v-.001l-.04-.101-.621-1.453-.407-.574-1.483-.36-2.455-.066h-.001l-.016-.003a.174.174 0 0 1-.035-.008c-.007-.003-.015-.003-.021-.006h-.001l-1.292-.601-.971-.185a.185.185 0 1 1 .07-.364l.842.161.296-.76a.186.186 0 0 1 .168-.118l.626-.018.744-.79-.287-.504a.183.183 0 0 1-.023-.11l.041-.374a.185.185 0 0 1 .142-.16l1.204-.287c.1-.024.2.037.225.136.024.1-.038.2-.137.223l-1.077.257-.02.185.31.546.49.457.475-.618.022-.023 1.071-.987.56-.757 1.674-3.396.02-.03.145-.19A12.079 12.079 0 0 0 12.076.033a12.09 12.09 0 0 0-5.897 1.526l.35 2.377zm17.429 10.209c.015-.088.033-.175.047-.264l-.075.03.028.234zM3.59 10.142a.183.183 0 0 1-.04.125l-.222.272a.187.187 0 0 1-.13.068l-1.006.074-.486.065a.495.495 0 0 1-.39.399l.24 3.05a.529.529 0 0 1 .35.588l.738.567.004.004.004.002.348.299.279.083.77-.295.004-.007.817-1.252 1.31-8.398a.227.227 0 0 1 .03-.084l-.133-1.708-.322-2.189a12.11 12.11 0 0 0-2.49 2.022l.325 6.315zm18.302 3.267c-.004.005-.006.011-.01.015l-.567.57.29.266.262.058.17-.077.006-.001.004-.003.433-.166-.317-.507a.183.183 0 0 1 0-.193l1.866-3.047-.011-.089-2.113 3.162-.013.012zm.252 4.768l-1.329.988a.187.187 0 0 1-.26-.037.184.184 0 0 1 .037-.258l1.322-.984-.598-.772-1.696 1.317-.002.017.412.577.88 1.158c.52-.555.988-1.158 1.397-1.804l-.163-.202zm-4.564 2.8l.293-.535a.183.183 0 0 1 .051-.059l1.7-1.288-.352-.491a.183.183 0 0 1-.033-.13l.02-.164a.185.185 0 0 1 .07-.123l1.745-1.355-.112-.12-.844-.478a.193.193 0 0 1-.058-.051l-.294-.4-1.081.627-1.444 1.268.343.235a.18.18 0 0 1 .04.038l.704.883c.064.08.05.196-.03.26a.187.187 0 0 1-.262-.03l-.687-.862-.402-.276-.865.675-.029.019-.808.418.382.56 1.953 1.38zM1.381 14.853a.16.16 0 0 0 .161-.16.16.16 0 0 0-.321 0c0 .088.072.16.16.16zm3.415 3.966l-.27-.707-.518-.724a.22.22 0 0 1-.026-.051 1.304 1.304 0 0 1-.09-.131l-1.487-1.571-.691-.53a.53.53 0 0 1-.528.08l-.296.277-.275.33a12.02 12.02 0 0 0 4.692 6.15l-.51-3.123zm-1.124-2.49c.007-.125.033-.25.074-.373l-.385.149.31.328v-.026l.001-.078zm13.897 5.09c-.003 0-.004-.002-.007-.004-.002-.001-.005 0-.007-.002l-.009-.007-.01-.005-2.153-1.52a.184.184 0 0 1-.046-.047l-.427-.627-1.323.638-.563.481-1.339 1.993-.578 1.64a12.083 12.083 0 0 0 7.708-1.997l-1.246-.542zM.626 15.2l.284-.267a.519.519 0 0 1-.057-.198l-.3-.052c-.006-.001-.01-.004-.015-.006-.005-.001-.01 0-.015-.002l-.24-.084c.057.263.125.523.2.78l.128-.155.008-.007c.003-.002.004-.006.007-.009zm.717-4.538a.124.124 0 0 0-.125-.124.124.124 0 0 0-.124.124.124.124 0 0 0 .249 0zm-.16 3.54l-.246-3.134a.49.49 0 0 1-.16-.628l-.06-.069-.524-.482C.07 10.58 0 11.29 0 12.017c0 .735.07 1.454.198 2.153l.434.151.323.057a.531.531 0 0 1 .228-.176zm-.205-4.095c.002.002.003.006.006.008l.008.007.066.075a.497.497 0 0 1 .57.186l.519-.07.006.001.005-.001.931-.069.126-.154-.303-5.873A11.903 11.903 0 0 0 .278 9.463l.7.644zm3.148 6.299c0 .136.028.289.085.428.057.14.142.263.248.352.123.104.297.181.508.234.155.038.33.064.513.08l-.002-.028.071-2.033c0-.01.003-.02.005-.03h-.015c-.208 0-.406.015-.58.052a1.206 1.206 0 0 0-.433.172.931.931 0 0 0-.399.72l-.001.053zm1.487 4.432l-.13-2.885a3.961 3.961 0 0 1-.572-.084l.003.004c.01.016.02.033.027.05l.29.755c.005.016.009.028.011.045l.58 3.547.003.001-.21-1.41-.002-.023zm18.538-8.821c0-.37-.019-.734-.052-1.095l-1.559 2.544.294.47.826-.315.401-.163c.058-.473.09-.953.09-1.441zM6.304 18.336a.23.23 0 0 1 .038-.092l.244-.347a3.335 3.335 0 0 1-.647.072l.128 2.838.169 1.133-.02-3.06c0-.013 0-.026.002-.039l.086-.505zm3.259 5.275c0-.455.027-.892.09-1.238 0-.006.004-.012.005-.017.028-.353.184-.954.68-2.175l.163-.977-.048-1.358.001-.007v-.007l.037-.956-.363.002-.004-.001h-.005l-1.61-.078c-.005 0-.009-.003-.013-.003h-.013l-.058-.01-.386.11-.448.374a1.166 1.166 0 0 1-.136.179l-.71 1.012-.074.435.023 3.475.024.385c.892.44 1.846.773 2.846.983l-.001-.128zm8.619-2.958l-.278.508 1.265.551c.527-.38 1.022-.8 1.48-1.257l-.806-1.061-1.661 1.26zm-6.82 1.48l1.366-2.034a.175.175 0 0 1 .034-.037l.6-.514a.18.18 0 0 1 .04-.026l1.49-.719.974-.503.954-.746 1.632-1.433.03-.021 1.241-.72h.003l.002-.002 1.413-.763.124-.163-.22-.202-.376.33-.372.327-.005.003-.005.005-.419.319c-.004.003-.01.004-.015.007-.004.003-.008.008-.013.01l-1.407.72-.023.01-1.51.533-.021.006-1.242.288-.023.003-1.514.16c-.01 0-.019-.003-.028-.003-.01 0-.019.002-.03 0l-.745-.153a.189.189 0 0 1-.067-.028l-.617-.414a.75.75 0 0 1-.568.262.75.75 0 0 1-.373-.102l-.52.287a.192.192 0 0 1-.073.022l-.215.02-.038.978.048 1.37-.003.018c0 .006.002.012 0 .019l-.17 1.014c0 .007-.005.013-.007.02-.002.006-.001.013-.004.019-.508 1.248-.648 1.838-.662 2.104 0 .012-.006.022-.01.034h.001a7.034 7.034 0 0 0-.084 1.173l.002.198c.26.046.522.085.788.114l.616-1.749a.185.185 0 0 1 .021-.041zM6.039 14.98c.183.016.363.045.536.087l-.099-.327a.238.238 0 0 1-.01-.065l.007-4.06-.434 4.365zm8.098-5.683a.186.186 0 0 1-.13.058l-.58.017-.245.628 1.012.472 1.115-1.604-.41-.38-.762.809zm9.566 5.423l-.406.186a.187.187 0 0 1-.247-.09.184.184 0 0 1 .09-.246l.364-.166.094-.128-.026-.226-.75.284-.511.197.03.418a.184.184 0 0 1-.076.164l-.547.39c-.083.06-.2.041-.26-.041a.184.184 0 0 1 .042-.258l.462-.33-.014-.19a.186.186 0 0 1-.101.007l-.256-.056-.176.233a.189.189 0 0 1-.06.052l-1.262.68.244.331.835.473c.017.01.031.021.044.035l.27.288.004.006c.001.003.004.003.006.006l.826 1.066.19.236c.223-.379.425-.77.605-1.174l-.46-.579a.184.184 0 0 1 .032-.26.187.187 0 0 1 .261.031l.333.42c.255-.633.46-1.29.605-1.97l-.112.152a.189.189 0 0 1-.073.059zM7.256 16.933a1.174 1.174 0 0 0 .027-.837.792.792 0 0 0-.204-.304 1.287 1.287 0 0 0-.53-.265 3.204 3.204 0 0 0-.546-.096l.002.023-.072 2.034c0 .01-.002.02-.004.029.209-.004.414-.026.595-.069.2-.047.37-.119.491-.207a.737.737 0 0 0 .24-.308zm12.46-3.347l.021.056.2.321.576.26.406-.357.685-.689 2.321-3.471a11.959 11.959 0 0 0-4.136-6.91l-.13.17-1.674 3.394-.017.028-.58.785-.023.027-1.073.987-.588.764-1.098 1.58 1.94.052V9.45c0-.102.084-.185.187-.185s.186.083.186.185v1.18l1.285.31-.412-4.071a.185.185 0 0 1 .167-.203.186.186 0 0 1 .204.166l.425 4.202c.005.05-.012.1-.045.139l.37.522.02.034.631 1.477v.002l.003.003.039.1.11.276zm-14.438.803l-.41.63c.214-.046.441-.062.67-.063l.046.002L6.2 8.75l.001-.154-.89 5.705a.227.227 0 0 1-.034.088zm6.767 1.876a.38.38 0 0 0 .38-.377.38.38 0 0 0-.76 0c0 .208.17.376.38.377zm-4.25.352l.035-.029a.183.183 0 0 1 .068-.036l.123-.036-.223-.179a1.475 1.475 0 0 1 .003.215c-.001.022-.004.043-.006.065zM11.44 6.435h-.283l-.001-1.18-1.522.002-.18.815.001.52.207.789 1.78-.002-.002-.944z" fill="#3D3F84" mask="url(#b)"/></g></g></svg>
